<svg xmlns="http://www.w3.org/2000/svg" width="25" height="25" fill="none"><g clip-path="url(#a)"><path fill="#4267B2" d="M23.62 4e-8H1.37882C.617218.00038151-.0001907.618172 4e-8 1.37997V23.6212C.00038151 24.3828.618172 25.0002 1.37997 25H23.62c.762.0002 1.3798-.6174 1.38-1.3794V1.37882C24.9996.617218 24.3818-.0001907 23.62 4e-8Z"/><path fill="#fff" d="M17.2607 25v-9.6679H20.52l.4883-3.7842h-3.7476V9.13776c0-1.0931.3035-1.83792 1.871-1.83792h1.9865V3.92441c-.3456-.04597-1.5314-.14878-2.9112-.14878-2.8809 0-4.8525 1.75782-4.8525 4.98734v2.78493h-3.2471v3.7842h3.2471V25h3.9062Z"/></g><defs><clipPath id="a"><path fill="#fff" d="M0 0h25v25H0z"/></clipPath></defs></svg>