<svg xmlns="http://www.w3.org/2000/svg" width="20" height="21" fill="none"><path fill="#8D8D8D" fill-rule="evenodd" d="M4.16667 9.80934c0-2.68575 2.2425-4.86991 5-4.86991 2.75753 0 5.00003 2.18416 5.00003 4.86991 0 2.68576-2.2425 4.86986-5.00003 4.86986-2.7575 0-5-2.1841-5-4.86986ZM17.2558 16.5404l-2.8291-2.7564c.8775-1.099 1.4066-2.4764 1.4066-3.97466 0-3.58019-2.9908-6.49321-6.66663-6.49321C5.49083 3.31613 2.5 6.22915 2.5 9.80934c0 3.58016 2.99083 6.49316 6.66667 6.49316 1.53833 0 2.95253-.5154 4.08083-1.37l2.83 2.7555c.1625.1583.3758.2378.5892.2378.2133 0 .4266-.0795.5891-.2378.3259-.3173.3259-.8303 0-1.1476Z" clip-rule="evenodd"/><mask id="a" width="16" height="15" x="2" y="3" maskUnits="userSpaceOnUse" style="mask-type:luminance"><path fill="#fff" fill-rule="evenodd" d="M4.16667 9.80934c0-2.68575 2.2425-4.86991 5-4.86991 2.75753 0 5.00003 2.18416 5.00003 4.86991 0 2.68576-2.2425 4.86986-5.00003 4.86986-2.7575 0-5-2.1841-5-4.86986ZM17.2558 16.5404l-2.8291-2.7564c.8775-1.099 1.4066-2.4764 1.4066-3.97466 0-3.58019-2.9908-6.49321-6.66663-6.49321C5.49083 3.31613 2.5 6.22915 2.5 9.80934c0 3.58016 2.99083 6.49316 6.66667 6.49316 1.53833 0 2.95253-.5154 4.08083-1.37l2.83 2.7555c.1625.1583.3758.2378.5892.2378.2133 0 .4266-.0795.5891-.2378.3259-.3173.3259-.8303 0-1.1476Z" clip-rule="evenodd"/></mask><g mask="url(#a)"><path fill="#8D8D8D" d="M0 .88118h20v19.4796H0z"/></g></svg>